<?xml version="1.0" standalone="no"?>
<!DOCTYPE svg PUBLIC "-//W3C//DTD SVG 20010904//EN"
 "http://www.w3.org/TR/2001/REC-SVG-20010904/DTD/svg10.dtd">
<svg version="1.0" xmlns="http://www.w3.org/2000/svg"
 width="190.000000pt" height="190.000000pt" viewBox="0 0 190.000000 190.000000"
 preserveAspectRatio="xMidYMid meet">
<metadata>
Created by potrace 1.11, written by Peter Selinger 2001-2013
</metadata>
<g transform="translate(0.000000,190.000000) scale(0.100000,-0.100000)"
fill="#000000" stroke="none">
<path d="M863 1279 c-18 -11 -38 -35 -44 -54 -10 -27 -19 -34 -50 -39 -73 -12
-117 -100 -83 -171 31 -66 45 -70 259 -71 211 -1 243 5 275 59 28 46 19 112
-20 151 -26 27 -38 31 -86 33 -55 1 -57 2 -74 40 -31 69 -113 93 -177 52z
m100 -8 c39 -15 67 -51 67 -86 0 -42 6 -46 41 -28 85 42 174 -46 133 -132 -25
-54 -45 -58 -248 -59 -203 -1 -224 4 -250 59 -41 85 49 174 133 132 38 -19 51
-4 16 19 -33 21 -32 29 9 70 35 35 57 41 99 25z"/>
<path d="M1412 818 c-7 -7 -8 -17 -1 -30 12 -22 23 -23 44 -2 12 12 13 19 4
30 -14 17 -31 18 -47 2z"/>
<path d="M290 697 c0 -117 0 -118 23 -115 21 3 22 7 25 119 l3 115 -26 0 -25
0 0 -119z"/>
<path d="M929 813 c-1 -1 -2 -18 -3 -35 -1 -32 -2 -33 -43 -30 -34 3 -47 -1
-68 -22 -66 -66 13 -180 96 -136 13 7 19 7 19 0 0 -15 40 -12 41 3 4 52 3 210
-1 216 -5 8 -39 11 -41 4z m-11 -120 c10 -19 0 -57 -17 -68 -34 -21 -77 38
-51 70 17 20 57 19 68 -2z"/>
<path d="M125 796 c-60 -26 -89 -90 -66 -148 21 -55 105 -84 166 -56 27 12 32
27 14 45 -9 9 -17 8 -33 -2 -28 -19 -66 -11 -89 16 -17 21 -18 46 -3 81 10 23
67 33 96 18 18 -10 25 -9 37 3 14 13 13 17 -8 30 -35 23 -80 28 -114 13z"/>
<path d="M1052 802 l-33 -3 3 -107 3 -107 60 -1 c102 -2 155 34 155 104 0 37
-25 88 -49 98 -24 11 -102 19 -139 16z m118 -64 c43 -46 12 -109 -55 -111
l-40 -2 -2 68 -2 67 39 0 c27 0 45 -7 60 -22z"/>
<path d="M445 752 c-36 -5 -65 -36 -71 -74 -6 -32 -2 -41 24 -68 48 -47 117
-39 146 18 33 66 -23 136 -99 124z m54 -64 c16 -44 -9 -76 -50 -63 -24 8 -35
50 -19 70 19 23 59 19 69 -7z"/>
<path d="M1722 743 c-85 -41 -49 -164 48 -163 45 1 77 22 56 39 -7 6 -21 9
-30 5 -23 -9 -68 4 -64 18 3 8 25 11 61 9 52 -2 57 -1 57 19 0 64 -67 102
-128 73z m59 -33 c31 -17 22 -30 -23 -30 -40 0 -41 0 -23 20 21 23 20 23 46
10z"/>
<path d="M589 745 c0 -3 -1 -23 -1 -45 0 -73 2 -80 22 -100 22 -22 69 -27 88
-8 9 9 12 9 12 -1 0 -7 9 -11 23 -9 20 3 22 9 25 86 3 82 3 82 -23 82 -23 0
-25 -3 -25 -49 0 -55 -18 -82 -50 -74 -20 5 -22 12 -23 86 0 32 -3 37 -24 37
-12 0 -23 -2 -24 -5z"/>
<path d="M1275 667 c0 -80 0 -82 25 -82 23 0 25 4 25 46 1 48 17 79 41 79 8 0
14 8 14 19 0 16 -8 18 -53 19 l-53 0 1 -81z"/>
<path d="M1412 668 c3 -78 4 -83 26 -84 21 -1 22 2 22 82 0 83 0 84 -25 84
-26 0 -26 0 -23 -82z"/>
<path d="M1480 747 c0 -2 15 -39 34 -83 30 -67 39 -79 61 -81 27 -2 28 0 76
120 l19 47 -23 0 c-19 0 -29 -11 -49 -56 l-25 -56 -20 54 c-17 44 -25 54 -47
56 -14 2 -26 2 -26 -1z"/>
</g>
</svg>
